<svg width="191" height="191" viewBox="0 0 191 191" fill="none" xmlns="http://www.w3.org/2000/svg">
<rect width="191" height="191" fill="white"/>
<path d="M150.625 64.9425C150.629 69.908 149.947 74.8504 148.599 79.6293L147.053 79.7855C146.927 79.7965 146.8 79.8075 146.676 79.8119L145.37 79.8713C143.671 79.9423 142.027 80.49 140.625 81.4515C139.223 82.4131 138.12 83.7498 137.442 85.3088L137.108 86.0698C136.55 87.3404 135.635 88.4212 134.473 89.1801C133.312 89.939 131.954 90.3434 130.566 90.3437H125.008C124.367 90.3456 123.749 90.1083 123.274 89.6783C122.798 89.2483 122.501 88.6565 122.439 88.0187L122.217 85.7971C122.085 84.4404 121.647 83.1313 120.936 81.9685C120.225 80.8056 119.26 79.8193 118.112 79.0838C117.664 78.7958 117.296 78.3996 117.041 77.9318C116.786 77.464 116.653 76.9396 116.654 76.4069V74.1809C116.654 73.5631 116.786 72.9524 117.04 72.3893C117.294 71.8262 117.665 71.3234 118.128 70.9144L127.621 62.5295C128.958 61.3438 129.928 59.8 130.416 58.0806C130.903 56.3612 130.889 54.5381 130.373 52.827C129.837 51.0612 128.8 49.489 127.388 48.3009C125.977 47.1127 124.25 46.3599 122.419 46.1335L121.46 46.0147C120.316 45.8747 119.265 45.3179 118.506 44.4508C118.144 44.0397 117.919 43.5266 117.861 42.9822C117.803 42.4378 117.916 41.8889 118.183 41.4109L120.171 38.0103C122.629 33.8141 125.527 29.8913 128.816 26.3083L130.96 23.3168C137.115 28.3667 142.072 34.7203 145.472 41.9188C148.873 49.1173 150.633 56.9811 150.625 64.9425Z" fill="white"/>
<path d="M147.052 79.7854L148.598 79.6293C142.204 102.255 121.404 118.833 96.733 118.833C66.9699 118.833 42.8423 94.7055 42.8423 64.9424C42.8423 63.2465 42.9193 61.5704 43.0732 59.9141L43.7243 59.9756L44.459 59.8305C46.2001 59.4899 48.0041 59.701 49.6195 60.4343C51.2349 61.1677 52.5812 62.3868 53.4709 63.9218C53.8907 64.6411 54.4123 65.296 55.0194 65.8662L58.8511 69.4736C59.5361 70.1173 60.3684 70.5833 61.2751 70.8308L61.7216 70.954C63.0187 71.3103 64.2014 71.9963 65.1546 72.9454C66.1079 73.8944 66.7992 75.074 67.1613 76.3694L69.2136 83.78C69.4616 84.6698 69.8767 85.5043 70.4365 86.2391L76.6593 94.3975C77.4359 95.4165 77.9523 96.6094 78.1638 97.8729L79.8553 108.022C79.9092 108.386 80.0956 108.717 80.3788 108.952C80.5812 109.115 80.8238 109.22 81.0809 109.256C81.338 109.292 81.6001 109.258 81.8394 109.157C82.3196 108.956 82.7361 108.628 83.0438 108.209C83.3515 107.789 83.539 107.293 83.5859 106.775C83.7909 104.7 84.6208 102.737 85.9659 101.144L87.7696 98.9771C88.0885 98.5934 88.3277 98.15 88.4734 97.6728L90.3277 91.6634C90.8745 89.8875 91.9599 88.3255 93.4336 87.1938L98.9458 82.9617C99.3464 82.6633 99.6184 82.2237 99.7069 81.7321C99.7517 81.4628 99.7369 81.1869 99.6636 80.9239C99.5902 80.6609 99.4601 80.4172 99.2824 80.21L95.6134 75.8921C95.3935 75.6348 95.1845 75.3664 94.9887 75.0915L92.182 71.1827C90.6313 69.0183 88.1501 67.5841 85.4864 67.6545C85.2189 67.6609 84.955 67.5915 84.7253 67.4544L78.9931 64.0142C78.1685 63.5222 77.2309 63.2513 76.2711 63.2278C75.3112 63.2043 74.3615 63.4289 73.5138 63.88L70.4937 65.4989C69.1716 66.2072 67.6303 66.3888 66.1797 66.0073C64.7291 65.6258 63.4767 64.7094 62.6741 63.4422L59.7398 58.8098C59.0755 57.7602 58.7319 56.5395 58.7511 55.2975C58.7702 54.0554 59.1513 52.846 59.8476 51.8172C60.5933 50.7101 61.6325 49.8325 62.849 49.2827C64.0654 48.733 65.4108 48.5329 66.7346 48.7048L71.136 49.2635C71.9042 49.3692 72.6864 49.2469 73.3856 48.9117C74.0849 48.5766 74.6702 48.0434 75.0689 47.3784C75.7561 46.1962 76.7766 45.2429 78.0027 44.6377C79.2289 44.0324 80.6062 43.8021 81.9626 43.9756L83.8872 44.222C84.5624 44.3065 85.2479 44.2136 85.8763 43.9525C86.5046 43.6914 87.054 43.271 87.4704 42.7328L89.1663 40.5332C89.9141 39.5683 90.334 38.3898 90.3648 37.1695C90.3957 35.9492 90.0359 34.751 89.3379 33.7496L85.6799 28.4771C84.2778 26.4535 82.4506 24.7607 80.326 23.5169C79.7677 23.1911 79.2287 22.8335 78.7115 22.4457L75.6298 20.1317L71.7277 17.193C81.1112 12.285 91.732 10.2485 102.265 11.3375C112.799 12.4266 122.778 16.5929 130.959 23.3168L128.815 26.3082C125.526 29.8912 122.628 33.814 120.17 38.0102L118.182 41.4108C117.915 41.8888 117.802 42.4378 117.86 42.9821C117.918 43.5265 118.143 44.0396 118.505 44.4507C119.264 45.3178 120.315 45.8746 121.459 46.0146L122.418 46.1334C124.249 46.3598 125.976 47.1127 127.387 48.3008C128.799 49.4889 129.836 51.0612 130.372 52.8269C130.888 54.5381 130.902 56.3611 130.415 58.0805C129.927 59.7999 128.957 61.3437 127.62 62.5294L118.127 70.9144C117.664 71.3234 117.293 71.8261 117.039 72.3892C116.785 72.9523 116.653 73.563 116.653 74.1808V76.4068C116.652 76.9395 116.785 77.464 117.04 77.9318C117.295 78.3996 117.663 78.7957 118.111 79.0838C119.259 79.8192 120.224 80.8055 120.935 81.9684C121.646 83.1313 122.084 84.4404 122.216 85.797L122.438 88.0186C122.5 88.6565 122.797 89.2483 123.272 89.6783C123.748 90.1083 124.366 90.3455 125.007 90.3436H130.565C131.953 90.3433 133.31 89.939 134.472 89.18C135.634 88.4211 136.549 87.3404 137.107 86.0698L137.441 85.3087C138.119 83.7497 139.222 82.413 140.624 81.4515C142.026 80.4899 143.67 79.9423 145.369 79.8712L146.675 79.8118C146.799 79.8074 146.926 79.7964 147.052 79.7854Z" fill="url(#paint0_linear)"/>
<path d="M99.2814 80.21C99.4591 80.4172 99.5893 80.6609 99.6626 80.9239C99.736 81.1869 99.7507 81.4628 99.7059 81.7321C99.6175 82.2237 99.3454 82.6633 98.9449 82.9617L93.4326 87.1938C91.9589 88.3256 90.8735 89.8875 90.3268 91.6634L88.4725 97.6728C88.3268 98.15 88.0875 98.5934 87.7686 98.9772L85.9649 101.144C84.6198 102.737 83.7899 104.7 83.5849 106.775C83.538 107.293 83.3506 107.789 83.0428 108.209C82.7351 108.628 82.3187 108.956 81.8384 109.157C81.5991 109.258 81.3371 109.292 81.0799 109.256C80.8228 109.22 80.5802 109.115 80.3779 108.952C80.0946 108.717 79.9082 108.386 79.8543 108.022L78.1628 97.8729C77.9513 96.6094 77.4349 95.4165 76.6583 94.3975L70.4356 86.2392C69.8757 85.5044 69.4607 84.6698 69.2126 83.78L67.1603 76.3695C66.7982 75.074 66.1069 73.8944 65.1537 72.9454C64.2004 71.9964 63.0177 71.3103 61.7207 70.954L61.2741 70.8308C60.3674 70.5833 59.5351 70.1173 58.8502 69.4736L55.0184 65.8663C54.4113 65.2961 53.8897 64.6411 53.4699 63.9218C52.5803 62.3869 51.2339 61.1677 49.6185 60.4344C48.0031 59.701 46.1991 59.4899 44.458 59.8305L43.7234 59.9757L43.0723 59.9141C43.9107 50.9695 46.9711 42.3763 51.9754 34.9154C56.9797 27.4545 63.7691 21.3625 71.7267 17.193L75.6289 20.1317L78.7105 22.4457C79.2277 22.8335 79.7668 23.1912 80.3251 23.5169C82.4496 24.7607 84.2768 26.4535 85.6789 28.4771L89.3369 33.7496C90.0349 34.751 90.3947 35.9492 90.3639 37.1695C90.333 38.3898 89.9131 39.5683 89.1654 40.5332L87.4694 42.7328C87.0531 43.271 86.5036 43.6914 85.8753 43.9525C85.247 44.2136 84.5614 44.3065 83.8863 44.222L81.9616 43.9756C80.6053 43.8022 79.2279 44.0325 78.0018 44.6377C76.7756 45.243 75.7551 46.1963 75.068 47.3784C74.6692 48.0434 74.0839 48.5766 73.3847 48.9117C72.6855 49.2469 71.9032 49.3692 71.135 49.2635L66.7336 48.7048C65.4099 48.5329 64.0644 48.733 62.848 49.2828C61.6316 49.8325 60.5923 50.7101 59.8466 51.8173C59.1503 52.846 58.7692 54.0555 58.7501 55.2975C58.731 56.5395 59.0746 57.7602 59.7388 58.8099L62.6731 63.4423C63.4757 64.7094 64.7282 65.6258 66.1788 66.0073C67.6294 66.3888 69.1706 66.2072 70.4928 65.4989L73.5128 63.88C74.3605 63.429 75.3102 63.2043 76.2701 63.2278C77.23 63.2513 78.1675 63.5222 78.9921 64.0142L84.7243 67.4544C84.9541 67.5915 85.2179 67.6609 85.4854 67.6545C88.1491 67.5842 90.6303 69.0183 92.181 71.1827L94.9878 75.0915C95.1835 75.3664 95.3925 75.6348 95.6124 75.8921L99.2814 80.21Z" fill="white"/>
<path d="M96.7319 11.0517C88.0218 11.0386 79.4395 13.1464 71.7266 17.193L75.6287 20.1317L78.7104 22.4457C79.2147 22.8233 79.7399 23.1723 80.2833 23.491L80.5253 23.352C88.2915 19.2918 96.9296 17.1841 105.693 17.2109C114.456 17.2377 123.082 19.3983 130.823 23.5059L130.958 23.3168C121.325 15.369 109.221 11.0313 96.7319 11.0517Z" fill="#AFEBFF"/>
<path d="M51.6408 71.1014C51.6408 69.4055 51.7178 67.7294 51.8717 66.0731L52.379 62.442C51.3943 61.3631 50.1483 60.5561 48.7611 60.0987C47.3739 59.6413 45.8923 59.5489 44.459 59.8306L43.7243 59.9757L43.0732 59.9142C42.9215 61.5705 42.8445 63.2466 42.8423 64.9425C42.8391 74.5249 45.3918 83.9347 50.2374 92.2017C55.0829 100.469 62.0458 107.294 70.4082 111.973C64.5147 106.919 59.7855 100.649 56.5458 93.5936C53.3061 86.5382 51.6327 78.865 51.6408 71.1014Z" fill="#AFEBFF"/>
<path d="M52.3395 62.3999C53.6842 54.2002 56.905 46.4219 61.7507 39.6719C66.5963 32.9218 72.9358 27.3824 80.2747 23.4857C79.7344 23.1683 79.2122 22.8211 78.7105 22.4457L75.6289 20.1317L71.7267 17.193C63.7691 21.3625 56.9797 27.4545 51.9754 34.9154C46.9711 42.3763 43.9107 50.9695 43.0723 59.9141L43.7234 59.9757L44.458 59.8305C45.8818 59.5507 47.3535 59.6399 48.7331 60.0897C50.1126 60.5394 51.3542 61.3347 52.3395 62.3999Z" fill="white"/>
<path d="M96.7321 9.73196C85.8125 9.73194 75.1381 12.97 66.0587 19.0366C56.9794 25.1032 49.9029 33.7259 45.7242 43.8143C41.5454 53.9027 40.4521 65.0037 42.5824 75.7135C44.7127 86.4233 49.971 96.2609 57.6923 103.982C68.0463 114.336 82.0893 120.153 96.7321 120.153C111.375 120.153 125.418 114.336 135.772 103.982C146.126 93.6282 151.943 79.5852 151.943 64.9425C151.943 50.2997 146.126 36.2567 135.772 25.9027C130.657 20.7599 124.573 16.6826 117.872 13.9069C111.171 11.1312 103.985 9.71214 96.7321 9.73196ZM59.5585 27.7689C63.1198 24.2019 67.1736 21.1634 71.5966 18.746L77.9185 23.5C78.4759 23.9184 79.0566 24.3045 79.658 24.6566C81.615 25.8056 83.2996 27.3655 84.5955 29.2285L88.2517 34.501C88.7896 35.2726 89.0669 36.1958 89.0431 37.136C89.0194 38.0763 88.6959 38.9843 88.1197 39.7278L86.424 41.9274C86.1483 42.2834 85.7846 42.5614 85.3688 42.7341C84.953 42.9068 84.4994 42.9683 84.0526 42.9124L82.1284 42.6662C80.5145 42.4586 78.8752 42.7321 77.4161 43.4524C75.9571 44.1727 74.7432 45.3078 73.9266 46.7153C73.6595 47.157 73.268 47.5101 72.8011 47.7304C72.3343 47.9507 71.8129 48.0284 71.3021 47.9539L66.9011 47.395C65.3351 47.1908 63.7432 47.4273 62.3042 48.0777C60.8652 48.7281 59.636 49.7668 58.7545 51.0771C57.9136 52.3183 57.4533 53.7779 57.4302 55.2769C57.4071 56.776 57.8222 58.2491 58.6245 59.5156L61.5588 64.1488C62.5441 65.6924 64.0746 66.8081 65.8455 67.2739C67.6165 67.7397 69.4979 67.5214 71.1151 66.6623L74.1358 65.0439C74.782 64.7001 75.5059 64.5288 76.2376 64.5465C76.9693 64.5643 77.684 64.7705 78.3127 65.1453L84.046 68.5855C84.4903 68.8525 85.0016 68.9871 85.5197 68.9733C87.6435 68.9141 89.7318 70.0308 91.1094 71.9513L93.9142 75.8612C94.1321 76.1647 94.3651 76.4625 94.6064 76.7467L98.276 81.0637C98.33 81.1261 98.3693 81.1997 98.3912 81.2792C98.4131 81.3586 98.4171 81.442 98.4027 81.5232C98.367 81.682 98.2732 81.8218 98.1399 81.9152L92.628 86.1477C90.935 87.4429 89.6892 89.2348 89.0647 91.2728L87.2121 97.2835C87.1169 97.5939 86.9607 97.8822 86.7529 98.1317L84.9492 100.3C83.4306 102.097 82.4955 104.313 82.2687 106.654C82.2436 106.934 82.1427 107.201 81.9768 107.428C81.8109 107.654 81.5863 107.831 81.3273 107.939C81.306 107.949 81.2825 107.952 81.2596 107.948C81.2367 107.944 81.2155 107.933 81.1986 107.917C81.1744 107.884 81.1592 107.845 81.1546 107.805L79.4651 97.6566C79.2178 96.1812 78.615 94.7881 77.7089 93.5978L71.4855 85.4372C71.0266 84.837 70.6874 84.1542 70.4864 83.4259L68.4324 76.0154C68.0082 74.5005 67.1994 73.121 66.0847 72.011C64.9699 70.901 63.587 70.0981 62.0702 69.6805L61.6228 69.5582C60.9243 69.3672 60.2832 69.0082 59.7554 68.5125L55.9234 64.9062C55.4089 64.4221 54.9668 63.8665 54.6107 63.2565C53.6112 61.5388 52.1162 60.163 50.3216 59.3095C48.5269 58.4559 46.5163 58.1643 44.5531 58.4729C45.9662 46.8439 51.2516 36.0288 59.5585 27.7689ZM133.906 102.116C126.554 109.468 117.186 114.475 106.988 116.504C96.7905 118.532 86.2201 117.491 76.614 113.512C67.0078 109.533 58.7973 102.795 53.0207 94.1497C47.2442 85.5043 44.161 75.3401 44.1611 64.9425C44.1611 63.69 44.2051 62.445 44.2931 61.2075L44.7128 61.1246C46.185 60.8389 47.7097 61.0189 49.0749 61.6393C50.4402 62.2598 51.5784 63.2901 52.3314 64.587C52.8151 65.4158 53.4156 66.1707 54.1144 66.8284L57.9457 70.4343C58.7885 71.2259 59.8121 71.7994 60.9273 72.1047L61.3747 72.2267C62.4508 72.523 63.4318 73.0926 64.2227 73.8801C65.0136 74.6676 65.5873 75.6462 65.8881 76.721L67.9421 84.1315C68.2328 85.1841 68.7229 86.1711 69.386 87.0388L75.6096 95.1994C76.2551 96.0474 76.6845 97.0397 76.8607 98.0908L78.5522 108.24C78.6501 108.894 78.98 109.491 79.4817 109.922C79.9834 110.354 80.6235 110.59 81.285 110.589C81.6505 110.589 82.0124 110.516 82.3494 110.374C83.0507 110.081 83.6587 109.602 84.1078 108.989C84.5569 108.376 84.8302 107.652 84.8981 106.895C85.0773 105.086 85.8033 103.375 86.9794 101.99L88.7831 99.821C89.2137 99.3038 89.5373 98.7062 89.7349 98.0628L91.5876 92.0521C92.0517 90.5372 92.9776 89.2052 94.236 88.2424L99.7478 84.0101C100.418 83.5078 100.87 82.7671 101.01 81.9411C101.083 81.4836 101.057 81.0156 100.932 80.5692C100.808 80.1229 100.588 79.7088 100.288 79.3557L96.6177 75.0387C96.4228 74.8095 96.235 74.5691 96.0592 74.3241L93.2543 70.4142C91.3661 67.7822 88.449 66.257 85.4511 66.3361C85.4346 66.3364 85.4183 66.3321 85.404 66.3236L79.6705 62.8834C78.6498 62.2749 77.4894 61.9401 76.3014 61.9112C75.1134 61.8824 73.9381 62.1606 72.8891 62.7189L69.8686 64.3371C68.8397 64.8836 67.6427 65.0225 66.5159 64.7262C65.3892 64.4299 64.4155 63.72 63.7886 62.738L60.8543 58.1047C60.327 57.2724 60.0543 56.3042 60.0695 55.3191C60.0847 54.3339 60.3873 53.3746 60.9401 52.559C61.5489 51.6537 62.398 50.936 63.3921 50.4866C64.3862 50.0372 65.486 49.8739 66.5678 50.0149L70.9695 50.5739C71.9947 50.7142 73.0385 50.5491 73.9704 50.0992C74.9022 49.6493 75.6807 48.9345 76.2083 48.0443C76.7646 47.0856 77.5915 46.3124 78.5854 45.8218C79.5793 45.3312 80.696 45.1449 81.7953 45.2864L83.7196 45.5326C84.623 45.6453 85.5402 45.521 86.381 45.1717C87.2218 44.8224 87.9572 44.2603 88.5148 43.5406L90.2104 41.341C91.13 40.1544 91.6464 38.7051 91.6842 37.2045C91.7221 35.7038 91.2795 34.2303 90.4209 32.9989L86.7645 27.7249C85.2491 25.5468 83.2794 23.7232 80.9912 22.3798C80.4769 22.0784 79.9802 21.748 79.5036 21.3899L74.2115 17.4097C83.0414 13.2438 92.855 11.6126 102.558 12.6983C112.26 13.784 121.471 17.5438 129.162 23.5583L127.788 25.4746C124.457 29.11 121.521 33.089 119.031 37.3447L117.035 40.7563C116.631 41.4719 116.459 42.2957 116.544 43.1133C116.629 43.9309 116.967 44.7018 117.51 45.3188C118.482 46.431 119.83 47.1455 121.297 47.3255L122.255 47.4434C123.833 47.6384 125.321 48.287 126.537 49.3106C127.754 50.3342 128.647 51.6888 129.109 53.2101C129.552 54.6795 129.564 56.2449 129.145 57.7211C128.726 59.1974 127.893 60.5228 126.744 61.5405L117.299 69.9264C116.702 70.4618 116.227 71.1183 115.905 71.8519C115.582 72.5856 115.42 73.3796 115.429 74.1809V76.4067C115.418 77.1564 115.597 77.8968 115.949 78.5587C116.301 79.2206 116.816 79.7827 117.444 80.1924C118.42 80.8223 119.241 81.6659 119.845 82.6595C120.448 83.653 120.818 84.7706 120.926 85.928L121.136 88.0966C121.229 89.0539 121.678 89.9412 122.395 90.5825C123.112 91.2237 124.044 91.5719 125.006 91.5579H130.563C132.203 91.5684 133.81 91.0999 135.187 90.21C136.564 89.3201 137.651 88.0474 138.315 86.5482L138.649 85.814C139.229 84.4822 140.172 83.3407 141.371 82.5205C142.57 81.7004 143.976 81.2346 145.428 81.1768L146.735 81.1242L146.776 81.1216C144.217 89.0438 139.805 96.2412 133.906 102.116ZM147.569 78.4063L146.92 78.4723C146.817 78.4827 146.715 78.4899 146.614 78.4943L145.308 78.5535C143.363 78.6344 141.481 79.2613 139.876 80.3624C138.27 81.4634 137.008 82.9942 136.232 84.7795L135.898 85.4876C135.44 86.5173 134.691 87.3907 133.744 88.0003C132.796 88.6099 131.69 88.929 130.563 88.9183H125.006C124.698 88.9308 124.397 88.8257 124.164 88.6245C123.931 88.4232 123.783 88.1408 123.75 87.8346L123.528 85.6394C123.386 84.0904 122.893 82.5941 122.087 81.2639C121.28 79.9336 120.182 78.8043 118.875 77.9616C118.618 77.7931 118.41 77.5617 118.269 77.2895C118.128 77.0174 118.059 76.7135 118.068 76.4071V74.1809C118.06 73.7535 118.142 73.3292 118.311 72.9365C118.48 72.5438 118.731 72.1917 119.047 71.904L128.517 63.5186C130.042 62.1648 131.147 60.4022 131.702 58.4396C132.257 56.477 132.238 54.3966 131.648 52.4444C131.036 50.4337 129.854 48.6436 128.246 47.291C126.637 45.9383 124.671 45.0813 122.585 44.8236L121.624 44.7057C120.801 44.6049 120.045 44.2043 119.499 43.5806C119.32 43.3777 119.207 43.125 119.176 42.8563C119.145 42.5876 119.196 42.3157 119.323 42.077L121.311 38.6774C123.72 34.5611 126.562 30.7138 129.788 27.2011C129.824 27.1618 129.858 27.1203 129.889 27.0769L131.201 25.2463C132.126 26.0527 133.027 26.8936 133.906 27.7689C138.803 32.6392 142.685 38.4325 145.328 44.8134C147.971 51.1942 149.322 58.0359 149.303 64.9425C149.306 69.4862 148.723 74.0114 147.569 78.4061L147.569 78.4063Z" fill="#284268"/>
<g clip-path="url(#clip0)">
<path d="M65.7618 120.18C85.3842 120.18 101.291 104.273 101.291 84.651C101.291 65.0287 85.3842 49.1216 65.7618 49.1216C46.1395 49.1216 30.2324 65.0287 30.2324 84.651C30.2324 104.273 46.1395 120.18 65.7618 120.18Z" fill="white"/>
<path d="M65.7597 49.1216C65.1255 49.1216 64.4952 49.1389 63.8691 49.1718C82.6126 50.1546 97.5081 65.6629 97.5081 84.651C97.5081 103.639 82.6126 119.148 63.8693 120.13C64.4954 120.163 65.1255 120.18 65.7598 120.18C85.3822 120.18 101.289 104.273 101.289 84.651C101.289 65.0286 85.3821 49.1216 65.7597 49.1216Z" fill="#1FC4FB"/>
<path d="M65.7599 112.337C81.0506 112.337 93.4461 99.9417 93.4461 84.651C93.4461 69.3604 81.0506 56.9648 65.7599 56.9648C50.4693 56.9648 38.0737 69.3604 38.0737 84.651C38.0737 99.9417 50.4693 112.337 65.7599 112.337Z" fill="white"/>
<path d="M65.7625 87.5131C67.3432 87.5131 68.6246 86.2317 68.6246 84.651C68.6246 83.0704 67.3432 81.789 65.7625 81.789C64.1818 81.789 62.9004 83.0704 62.9004 84.651C62.9004 86.2317 64.1818 87.5131 65.7625 87.5131Z" fill="white"/>
<path d="M65.7613 65.4862C66.3535 65.4862 66.8336 65.0061 66.8336 64.4139V62.84C66.8336 62.2478 66.3535 61.7677 65.7613 61.7677C65.1691 61.7677 64.689 62.2478 64.689 62.84V64.4139C64.689 65.0061 65.1691 65.4862 65.7613 65.4862Z" fill="#284268"/>
<path d="M81.8869 68.494C81.4681 68.0753 80.7891 68.0751 80.3705 68.494L79.2576 69.6068C78.8386 70.0256 78.8386 70.7046 79.2574 71.1234C79.4669 71.3327 79.7412 71.4375 80.0158 71.4375C80.2901 71.4375 80.5646 71.3328 80.774 71.1235L81.8869 70.0106C82.3055 69.5918 82.3055 68.9128 81.8869 68.494Z" fill="#284268"/>
<path d="M85.8834 83.5788C85.291 83.5788 84.811 84.0589 84.811 84.6511C84.811 85.2433 85.291 85.7234 85.8834 85.7234H87.4572C88.0496 85.7234 88.5295 85.2434 88.5295 84.6511C88.5295 84.0587 88.0496 83.5788 87.4572 83.5788H85.8834Z" fill="#284268"/>
<path d="M80.6861 98.1442C80.2672 97.7256 79.5883 97.7256 79.1695 98.1442C78.7508 98.5631 78.7508 99.242 79.1695 99.6607L80.2823 100.774C80.4918 100.983 80.7663 101.087 81.0407 101.087C81.315 101.087 81.5896 100.983 81.799 100.774C82.2178 100.355 82.2178 99.6758 81.799 99.257L80.6861 98.1442Z" fill="#284268"/>
<path d="M64.5732 104.772V106.346C64.5732 106.938 65.0534 107.418 65.6456 107.418C66.2378 107.418 66.7179 106.938 66.7179 106.346V104.772C66.7179 104.179 66.2379 103.699 65.6456 103.699C65.0532 103.699 64.5732 104.179 64.5732 104.772Z" fill="#284268"/>
<path d="M50.6355 98.0619L49.5226 99.1747C49.1038 99.5935 49.1038 100.272 49.5226 100.691C49.7319 100.901 50.0064 101.005 50.2808 101.005C50.5551 101.005 50.8297 100.901 51.039 100.691L52.1519 99.5785C52.5707 99.1597 52.5707 98.4807 52.1519 98.0621C51.7333 97.6433 51.0543 97.6434 50.6355 98.0619Z" fill="#284268"/>
<path d="M43.9498 83.462C43.3576 83.462 42.8774 83.9421 42.8774 84.5343C42.8774 85.1267 43.3576 85.6066 43.9498 85.6066H45.5236C46.1158 85.6066 46.5959 85.1267 46.5959 84.5343C46.5959 83.9421 46.1158 83.462 45.5236 83.462H43.9498Z" fill="#284268"/>
<path d="M52.2335 69.5245L51.1206 68.4116C50.7017 67.9928 50.023 67.9929 49.6041 68.4116C49.1853 68.8304 49.1854 69.5093 49.6041 69.9281L50.717 71.0409C50.9264 71.2504 51.2008 71.355 51.4752 71.355C51.7496 71.355 52.0241 71.2504 52.2335 71.0409C52.6523 70.6221 52.6522 69.9433 52.2335 69.5245Z" fill="#284268"/>
<path d="M68.6339 87.3342L76.2719 91.2618C76.8017 91.5343 77.4466 91.3221 77.7159 90.7985C77.9869 90.2718 77.7793 89.6254 77.2527 89.3545L69.6172 85.4282C69.6679 85.1767 69.6947 84.9168 69.6947 84.6507C69.6947 82.8531 68.4824 81.3343 66.8328 80.8662V69.9361C66.8328 69.3439 66.3527 68.8638 65.7605 68.8638C65.1683 68.8638 64.6882 69.3439 64.6882 69.9361V80.8662C63.3796 81.2375 62.3472 82.2699 61.9759 83.5784H56.6534C56.0612 83.5784 55.5811 84.0585 55.5811 84.6507C55.5811 85.2429 56.0612 85.723 56.6534 85.723H61.9759C62.444 87.3727 63.9628 88.5851 65.7605 88.5851C66.8934 88.5853 67.9154 88.1033 68.6339 87.3342ZM65.7603 86.4406C64.7735 86.4406 63.9706 85.6378 63.9706 84.6509C63.9706 83.664 64.7734 82.8611 65.7603 82.8611C66.7471 82.8611 67.55 83.6639 67.55 84.6509C67.5501 85.6378 66.7471 86.4406 65.7603 86.4406Z" fill="#284268"/>
<path d="M93.4462 83.5768C94.0366 83.5316 94.4787 83.0163 94.4335 82.4257C93.8818 75.2207 90.6544 68.5325 85.3457 63.5928C80.0093 58.6273 73.0537 55.8926 65.76 55.8926C49.9026 55.8926 37.0015 68.7936 37.0015 84.6511C37.0015 100.509 49.9026 113.41 65.76 113.41C80.7575 113.41 93.2862 101.856 94.4334 86.8768C94.4784 86.2863 94.0366 85.771 93.446 85.7257C92.858 85.6815 92.3402 86.1225 92.2949 86.7131C91.2359 100.544 79.6676 111.265 65.76 111.265C51.085 111.265 39.1461 99.3261 39.1461 84.6511C39.1461 69.9761 51.085 58.0372 65.76 58.0372C72.5096 58.0372 78.9465 60.5679 83.8848 65.163C88.7977 69.7345 91.7846 75.9233 92.2949 82.5895C92.3402 83.1797 92.8535 83.623 93.4462 83.5768Z" fill="#284268"/>
<path d="M91.6424 58.7697C84.7293 51.8564 75.5378 48.0493 65.761 48.0493C58.7348 48.0493 51.9091 50.0458 46.0217 53.8232C45.5233 54.143 45.3784 54.8063 45.6983 55.3048C46.0181 55.8031 46.6812 55.9479 47.1799 55.6283C52.7209 52.073 59.1462 50.1939 65.761 50.1939C74.9649 50.1939 83.6178 53.778 90.1259 60.2861C96.634 66.7942 100.218 75.4471 100.218 84.651C100.218 103.694 84.807 119.108 65.761 119.108C62.3578 119.108 58.9918 118.611 55.7567 117.631C55.1898 117.459 54.5912 117.78 54.4196 118.347C54.2479 118.913 54.5682 119.512 55.1349 119.684C58.5719 120.725 62.147 121.253 65.761 121.253C85.9897 121.253 102.363 104.882 102.363 84.651C102.363 74.8743 98.5554 65.6829 91.6424 58.7697Z" fill="#284268"/>
<path d="M51.8574 116.185C39.3716 110.672 31.3038 98.294 31.3038 84.6508C31.3038 74.3412 35.8663 64.6567 43.8213 58.0804C44.2777 57.7031 44.3419 57.0273 43.9644 56.5707C43.5873 56.1145 42.9114 56.0503 42.4547 56.4275C34.0053 63.4126 29.1592 73.6995 29.1592 84.6508C29.1592 99.1428 37.7287 112.291 50.991 118.147C51.1318 118.21 51.2789 118.239 51.4236 118.239C51.8354 118.239 52.228 118.001 52.4051 117.6C52.6443 117.058 52.3991 116.425 51.8574 116.185Z" fill="#284268"/>
</g>
<path d="M26.0338 160.892C24.4449 160.892 23.1892 160.507 22.2667 159.738C21.3697 158.944 20.9213 157.663 20.9213 155.894C20.9213 155.279 20.9213 154.703 20.9213 154.165C20.9469 153.601 20.9597 152.947 20.9597 152.204V143.094H18.2305V142.248L19.2683 142.094C20.0115 141.966 20.6394 141.736 21.1519 141.403C21.6901 141.069 22.177 140.608 22.6126 140.019L25.1112 136.559H26.2644L26.1491 141.902H30.5313V143.094H26.1107V156.202C26.1107 157.124 26.3029 157.816 26.6873 158.278C27.0973 158.739 27.597 158.97 28.1864 158.97C28.699 158.97 29.1602 158.854 29.5703 158.624C29.9803 158.367 30.3903 158.034 30.8003 157.624L31.3001 158.201C30.8132 159.046 30.1341 159.713 29.2627 160.2C28.3914 160.661 27.3151 160.892 26.0338 160.892Z" fill="#284268"/>
<path d="M37.0429 139.211C36.1973 139.211 35.4797 138.942 34.8903 138.404C34.3009 137.866 34.0062 137.187 34.0062 136.367C34.0062 135.521 34.3009 134.842 34.8903 134.33C35.4797 133.791 36.1973 133.522 37.0429 133.522C37.8886 133.522 38.6062 133.791 39.1956 134.33C39.785 134.842 40.0797 135.521 40.0797 136.367C40.0797 137.187 39.785 137.866 39.1956 138.404C38.6062 138.942 37.8886 139.211 37.0429 139.211ZM32.6223 160.353V159.623L33.1989 159.469C33.7115 159.316 34.0574 159.085 34.2368 158.777C34.4162 158.47 34.5187 158.06 34.5443 157.547V150.474C34.5443 149.68 34.5443 148.95 34.5443 148.283C34.5443 147.591 34.5315 146.887 34.5059 146.169C34.5059 145.657 34.4034 145.259 34.1984 144.977C34.019 144.67 33.673 144.465 33.1605 144.362L32.6223 144.247V143.555L39.3493 141.326L39.8106 141.748L39.6953 147.207V157.586C39.6953 158.098 39.785 158.508 39.9644 158.816C40.1694 159.123 40.5154 159.354 41.0023 159.508L41.4251 159.623V160.353H32.6223Z" fill="#284268"/>
<path d="M43.1324 160.353V159.585L43.9781 159.354C44.3881 159.226 44.6572 159.046 44.7853 158.816C44.9134 158.56 44.9903 158.226 45.0159 157.816V150.205C45.0159 149.36 45.0159 148.642 45.0159 148.053C45.0159 147.463 45.0031 146.771 44.9775 145.977C44.9775 145.541 44.9134 145.208 44.7853 144.977C44.6572 144.721 44.3753 144.542 43.9396 144.439L43.1324 144.247V143.555L49.3597 141.326L49.8209 141.748L50.09 144.324C50.9869 143.504 51.9864 142.799 53.0883 142.21C54.1903 141.62 55.3179 141.326 56.4711 141.326C57.7524 141.326 58.7518 141.582 59.4694 142.094C60.1869 142.607 60.7379 143.389 61.1223 144.439C62.0961 143.465 63.1724 142.709 64.3513 142.171C65.5301 141.608 66.6961 141.326 67.8493 141.326C69.5919 141.326 70.8989 141.761 71.7702 142.633C72.6415 143.504 73.0771 144.875 73.0771 146.746V157.855C73.0771 158.675 73.4359 159.187 74.1535 159.392L74.8838 159.585V160.353H66.2348V159.585L66.9267 159.392C67.6187 159.162 67.9646 158.636 67.9646 157.816V146.553C67.9646 145.452 67.7596 144.708 67.3496 144.324C66.9652 143.914 66.3245 143.709 65.4276 143.709C64.7357 143.709 64.0822 143.85 63.4671 144.132C62.8521 144.414 62.173 144.849 61.4298 145.439C61.5836 146.208 61.6605 147.092 61.6605 148.091V157.855C61.6861 158.291 61.763 158.636 61.8911 158.893C62.0449 159.123 62.3267 159.29 62.7368 159.392L63.3903 159.585V160.353H54.7028V159.585L55.5101 159.354C55.9201 159.226 56.1892 159.046 56.3173 158.816C56.4711 158.56 56.5479 158.226 56.5479 157.816V146.592C56.5479 145.541 56.3557 144.798 55.9713 144.362C55.5869 143.927 54.9335 143.709 54.0109 143.709C52.8321 143.709 51.5635 144.273 50.2053 145.4V157.855C50.2053 158.701 50.5641 159.213 51.2817 159.392L51.9351 159.585V160.353H43.1324Z" fill="#284268"/>
<path d="M86.0771 141.326C87.6915 141.326 89.0754 141.659 90.2286 142.325C91.3818 142.991 92.2659 143.914 92.8809 145.093C93.5216 146.246 93.8419 147.579 93.8419 149.091C93.8419 149.424 93.8291 149.744 93.8035 150.052C93.7779 150.333 93.7266 150.603 93.6497 150.859H82.0793C82.1049 153.498 82.5918 155.395 83.54 156.548C84.5138 157.701 85.9233 158.278 87.7684 158.278C89.0498 158.278 90.0876 158.073 90.8821 157.663C91.6765 157.227 92.4069 156.625 93.0731 155.856L93.6882 156.433C92.9194 157.842 91.8687 158.944 90.5361 159.738C89.2291 160.507 87.6659 160.892 85.8464 160.892C84.0269 160.892 82.4253 160.507 81.0414 159.738C79.6576 158.97 78.5684 157.868 77.774 156.433C77.0052 154.972 76.6208 153.229 76.6208 151.205C76.6208 149.103 77.0693 147.322 77.9662 145.862C78.8888 144.401 80.0676 143.286 81.5027 142.517C82.9634 141.723 84.4882 141.326 86.0771 141.326ZM85.8849 142.44C85.1417 142.44 84.4882 142.658 83.9244 143.094C83.3863 143.504 82.9506 144.247 82.6175 145.323C82.3099 146.374 82.1306 147.86 82.0793 149.782H88.9601C89.242 147.194 89.1395 145.323 88.6525 144.17C88.1656 143.017 87.2431 142.44 85.8849 142.44Z" fill="#284268"/>
<path d="M101.618 160.853L95.3135 160.353V159.623L95.6979 159.546C96.6973 159.316 97.197 158.675 97.197 157.624V137.635C97.197 137.123 97.0945 136.726 96.8895 136.444C96.7101 136.162 96.3642 135.957 95.8516 135.829L95.3519 135.713V135.021L101.925 133.369L102.425 133.715L102.271 139.135V143.171C104.091 141.941 106.051 141.326 108.152 141.326C110.305 141.326 112.086 142.12 113.496 143.709C114.905 145.272 115.61 147.694 115.61 150.974C115.61 153.152 115.251 154.985 114.533 156.471C113.816 157.932 112.855 159.034 111.65 159.777C110.446 160.52 109.113 160.892 107.653 160.892C106.679 160.892 105.705 160.763 104.731 160.507C103.783 160.251 102.937 159.854 102.194 159.316L101.618 160.853ZM105.846 159.2C106.692 159.2 107.435 158.957 108.076 158.47C108.716 157.983 109.216 157.15 109.575 155.971C109.933 154.792 110.113 153.178 110.113 151.128C110.113 149.078 109.946 147.476 109.613 146.323C109.28 145.17 108.793 144.362 108.152 143.901C107.537 143.44 106.794 143.209 105.923 143.209C104.77 143.209 103.591 143.542 102.386 144.209V158.239C103.437 158.88 104.59 159.2 105.846 159.2Z" fill="#284268"/>
<path d="M127.182 141.326C128.797 141.326 130.181 141.659 131.334 142.325C132.487 142.991 133.371 143.914 133.986 145.093C134.627 146.246 134.947 147.579 134.947 149.091C134.947 149.424 134.934 149.744 134.909 150.052C134.883 150.333 134.832 150.603 134.755 150.859H123.185C123.21 153.498 123.697 155.395 124.645 156.548C125.619 157.701 127.029 158.278 128.874 158.278C130.155 158.278 131.193 158.073 131.987 157.663C132.782 157.227 133.512 156.625 134.178 155.856L134.793 156.433C134.025 157.842 132.974 158.944 131.641 159.738C130.334 160.507 128.771 160.892 126.952 160.892C125.132 160.892 123.531 160.507 122.147 159.738C120.763 158.97 119.674 157.868 118.879 156.433C118.11 154.972 117.726 153.229 117.726 151.205C117.726 149.103 118.175 147.322 119.071 145.862C119.994 144.401 121.173 143.286 122.608 142.517C124.069 141.723 125.593 141.326 127.182 141.326ZM126.99 142.44C126.247 142.44 125.593 142.658 125.03 143.094C124.492 143.504 124.056 144.247 123.723 145.323C123.415 146.374 123.236 147.86 123.185 149.782H130.065C130.347 147.194 130.245 145.323 129.758 144.17C129.271 143.017 128.348 142.44 126.99 142.44Z" fill="#284268"/>
<path d="M146.515 141.326C148.129 141.326 149.513 141.659 150.666 142.325C151.82 142.991 152.704 143.914 153.319 145.093C153.96 146.246 154.28 147.579 154.28 149.091C154.28 149.424 154.267 149.744 154.241 150.052C154.216 150.333 154.165 150.603 154.088 150.859H142.517C142.543 153.498 143.03 155.395 143.978 156.548C144.952 157.701 146.361 158.278 148.206 158.278C149.488 158.278 150.526 158.073 151.32 157.663C152.114 157.227 152.845 156.625 153.511 155.856L154.126 156.433C153.357 157.842 152.307 158.944 150.974 159.738C149.667 160.507 148.104 160.892 146.284 160.892C144.465 160.892 142.863 160.507 141.479 159.738C140.095 158.97 139.006 157.868 138.212 156.433C137.443 154.972 137.059 153.229 137.059 151.205C137.059 149.103 137.507 147.322 138.404 145.862C139.327 144.401 140.505 143.286 141.941 142.517C143.401 141.723 144.926 141.326 146.515 141.326ZM146.323 142.44C145.58 142.44 144.926 142.658 144.362 143.094C143.824 143.504 143.388 144.247 143.055 145.323C142.748 146.374 142.568 147.86 142.517 149.782H149.398C149.68 147.194 149.577 145.323 149.09 144.17C148.604 143.017 147.681 142.44 146.323 142.44Z" fill="#284268"/>
<path d="M162.888 160.892C161.658 160.892 160.543 160.751 159.543 160.469C158.57 160.213 157.634 159.841 156.737 159.354V154.818H157.775L158.928 157.009C159.415 157.957 159.966 158.662 160.581 159.123C161.222 159.585 162.029 159.815 163.003 159.815C164.207 159.815 165.168 159.559 165.886 159.046C166.604 158.508 166.962 157.791 166.962 156.894C166.962 156.074 166.693 155.408 166.155 154.895C165.617 154.382 164.656 153.908 163.272 153.473L161.581 152.935C160.069 152.473 158.864 151.781 157.967 150.859C157.096 149.911 156.66 148.732 156.66 147.322C156.66 146.22 156.955 145.221 157.545 144.324C158.134 143.401 158.992 142.671 160.12 142.133C161.248 141.595 162.619 141.326 164.233 141.326C165.284 141.326 166.245 141.454 167.116 141.71C168.013 141.941 168.884 142.274 169.73 142.709L169.499 146.823H168.5L167.308 144.631C166.898 143.811 166.475 143.248 166.04 142.94C165.63 142.607 164.989 142.44 164.118 142.44C163.195 142.44 162.375 142.684 161.658 143.171C160.966 143.632 160.62 144.286 160.62 145.131C160.62 145.926 160.914 146.579 161.504 147.092C162.093 147.579 163.041 148.04 164.348 148.475L166.001 148.975C167.872 149.565 169.205 150.346 169.999 151.32C170.794 152.294 171.191 153.46 171.191 154.818C171.191 156.638 170.46 158.111 169 159.239C167.565 160.341 165.527 160.892 162.888 160.892Z" fill="#284268"/>
<path d="M33.1582 173.456V174.752C33.1582 176.641 32.1531 177.604 30.7908 177.604C29.4285 177.604 28.4295 176.641 28.4295 174.752V173.456C28.4295 171.567 29.4346 170.605 30.7908 170.605C32.1471 170.605 33.1582 171.567 33.1582 173.456ZM34.0422 174.746V173.468C34.0422 171.143 32.7707 169.793 30.7908 169.793C28.817 169.793 27.5455 171.143 27.5455 173.462V174.746C27.5455 177.059 28.817 178.409 30.7908 178.409C32.7707 178.409 34.0422 177.059 34.0422 174.746ZM36.0342 178.233H36.9061V174.661C36.9061 173.517 37.4873 172.572 38.7104 172.572C39.6609 172.572 40.1937 173.16 40.1937 174.183V178.233H41.0717V173.904C41.0717 172.494 40.1816 171.791 38.9041 171.791C37.5721 171.791 37.118 172.548 36.9545 173.075H36.9061V171.894H36.0342V178.233ZM45.6066 178.336C47.1506 178.336 47.9014 177.38 47.9982 176.726H47.0719C46.9568 177.144 46.4361 177.561 45.6006 177.561C44.4562 177.561 43.8447 176.732 43.8447 175.624V175.291H48.0891V174.582C48.0891 172.863 47.0234 171.791 45.5279 171.791C44.0324 171.791 42.9668 172.863 42.9668 174.582V175.563C42.9668 177.253 43.9355 178.336 45.6066 178.336ZM43.8447 174.607V174.504C43.8447 173.323 44.5168 172.572 45.5279 172.572C46.5391 172.572 47.2111 173.323 47.2111 174.504V174.607H43.8447ZM52.4969 175.606C52.4969 177.295 53.4898 178.336 55.0762 178.336C56.7291 178.336 57.4496 177.404 57.492 176.556H56.6201C56.499 177.053 56.1176 177.537 55.0943 177.537C54.0227 177.537 53.3687 176.798 53.3687 175.606V174.552C53.3687 173.347 53.9682 172.59 55.0883 172.59C56.16 172.59 56.499 173.244 56.5777 173.656H57.4496C57.4193 172.772 56.6383 171.791 55.0762 171.791C53.4959 171.791 52.4969 172.845 52.4969 174.504V175.606ZM59.3508 178.233H60.2287V169.533H59.3508V178.233ZM62.6748 178.233H63.5467V171.894H62.6748V178.233ZM62.4387 169.939C62.4387 170.314 62.7353 170.605 63.1047 170.605C63.4922 170.605 63.7828 170.314 63.7828 169.939C63.7828 169.545 63.4922 169.26 63.1047 169.26C62.7353 169.26 62.4387 169.545 62.4387 169.939ZM65.6355 175.606C65.6355 177.295 66.6285 178.336 68.2148 178.336C69.8678 178.336 70.5883 177.404 70.6307 176.556H69.7588C69.6377 177.053 69.2562 177.537 68.233 177.537C67.1613 177.537 66.5074 176.798 66.5074 175.606V174.552C66.5074 173.347 67.1068 172.59 68.2269 172.59C69.2986 172.59 69.6377 173.244 69.7164 173.656H70.5883C70.558 172.772 69.7769 171.791 68.2148 171.791C66.6346 171.791 65.6355 172.845 65.6355 174.504V175.606ZM73.3371 175.83L73.991 175.188L76.3039 178.233H77.3574L74.6268 174.631L77.1939 171.894H76.1586L73.3734 174.843H73.3371V169.533H72.4652V178.233H73.3371V175.83ZM81.9408 171.894H80.9297V172.627H81.9408V176.514C81.9408 177.731 82.2254 178.294 83.6725 178.294C83.8723 178.294 84.3082 178.264 84.4051 178.246V177.513C84.2961 177.525 84.0357 177.543 83.8844 177.543C83.067 177.543 82.8127 177.337 82.8127 176.556V172.627H84.3021V171.894H82.8127V170.308H81.9408V171.894ZM86.3123 178.233H87.1842V171.894H86.3123V178.233ZM86.0762 169.939C86.0762 170.314 86.3728 170.605 86.7422 170.605C87.1297 170.605 87.4203 170.314 87.4203 169.939C87.4203 169.545 87.1297 169.26 86.7422 169.26C86.3728 169.26 86.0762 169.545 86.0762 169.939ZM89.5818 178.233H90.4537V174.159C90.4537 173.25 91.0531 172.572 91.9432 172.572C92.8514 172.572 93.3902 173.184 93.3902 174.056V178.233H94.2682V174.153C94.2682 173.257 94.9039 172.572 95.7818 172.572C96.7082 172.572 97.2047 173.148 97.2047 174.013V178.233H98.0766V173.777C98.0766 172.488 97.2713 171.791 95.9877 171.791C94.8918 171.791 94.2984 172.397 94.0502 173.008H94.0139C93.8141 172.33 93.2086 171.791 92.2277 171.791C91.0531 171.791 90.6475 172.463 90.5021 172.911H90.4537V171.894H89.5818V178.233ZM102.618 178.336C104.162 178.336 104.912 177.38 105.009 176.726H104.083C103.968 177.144 103.447 177.561 102.612 177.561C101.467 177.561 100.856 176.732 100.856 175.624V175.291H105.1V174.582C105.1 172.863 104.034 171.791 102.539 171.791C101.043 171.791 99.9777 172.863 99.9777 174.582V175.563C99.9777 177.253 100.946 178.336 102.618 178.336ZM100.856 174.607V174.504C100.856 173.323 101.528 172.572 102.539 172.572C103.55 172.572 104.222 173.323 104.222 174.504V174.607H100.856ZM109.508 175.606C109.508 177.295 110.501 178.336 112.087 178.336C113.74 178.336 114.461 177.404 114.503 176.556H113.631C113.51 177.053 113.129 177.537 112.105 177.537C111.034 177.537 110.38 176.798 110.38 175.606V174.552C110.38 173.347 110.979 172.59 112.099 172.59C113.171 172.59 113.51 173.244 113.589 173.656H114.461C114.43 172.772 113.649 171.791 112.087 171.791C110.507 171.791 109.508 172.845 109.508 174.504V175.606ZM118.687 171.791C117.161 171.791 116.011 172.845 116.011 174.564V175.563C116.011 177.356 117.143 178.336 118.687 178.336C120.2 178.336 121.357 177.337 121.357 175.563V174.564C121.357 172.79 120.194 171.791 118.687 171.791ZM118.693 172.572C119.77 172.572 120.479 173.396 120.479 174.667V175.473C120.479 176.774 119.801 177.561 118.693 177.561C117.573 177.561 116.882 176.768 116.882 175.473V174.667C116.882 173.396 117.609 172.572 118.693 172.572ZM123.294 178.233H124.166V174.661C124.166 173.517 124.747 172.572 125.97 172.572C126.921 172.572 127.454 173.16 127.454 174.183V178.233H128.332V173.904C128.332 172.494 127.442 171.791 126.164 171.791C124.832 171.791 124.378 172.548 124.215 173.075H124.166V171.894H123.294V178.233ZM131.91 178.233H132.788L135.107 171.894H134.169L132.358 177.283H132.316L130.608 171.894H129.634L131.91 178.233ZM138.825 178.336C140.369 178.336 141.119 177.38 141.216 176.726H140.29C140.175 177.144 139.654 177.561 138.819 177.561C137.674 177.561 137.063 176.732 137.063 175.624V175.291H141.307V174.582C141.307 172.863 140.241 171.791 138.746 171.791C137.25 171.791 136.185 172.863 136.185 174.582V175.563C136.185 177.253 137.154 178.336 138.825 178.336ZM137.063 174.607V174.504C137.063 173.323 137.735 172.572 138.746 172.572C139.757 172.572 140.429 173.323 140.429 174.504V174.607H137.063ZM143.299 178.233H144.171V174.243C144.171 173.299 144.788 172.615 145.903 172.615C146.102 172.615 146.302 172.627 146.399 172.645V171.828C146.278 171.815 146.145 171.797 146.005 171.797C144.849 171.797 144.371 172.469 144.213 172.911H144.171V171.894H143.299V178.233ZM148.651 171.894H147.64V172.627H148.651V176.514C148.651 177.731 148.936 178.294 150.383 178.294C150.583 178.294 151.019 178.264 151.116 178.246V177.513C151.007 177.525 150.746 177.543 150.595 177.543C149.778 177.543 149.523 177.337 149.523 176.556V172.627H151.013V171.894H149.523V170.308H148.651V171.894ZM155.196 178.336C156.74 178.336 157.491 177.38 157.588 176.726H156.662C156.547 177.144 156.026 177.561 155.19 177.561C154.046 177.561 153.435 176.732 153.435 175.624V175.291H157.679V174.582C157.679 172.863 156.613 171.791 155.118 171.791C153.622 171.791 152.557 172.863 152.557 174.582V175.563C152.557 177.253 153.525 178.336 155.196 178.336ZM153.435 174.607V174.504C153.435 173.323 154.107 172.572 155.118 172.572C156.129 172.572 156.801 173.323 156.801 174.504V174.607H153.435ZM159.671 178.233H160.543V174.243C160.543 173.299 161.16 172.615 162.274 172.615C162.474 172.615 162.674 172.627 162.771 172.645V171.828C162.65 171.815 162.517 171.797 162.377 171.797C161.221 171.797 160.743 172.469 160.585 172.911H160.543V171.894H159.671V178.233Z" fill="#284268"/>
<defs>
<linearGradient id="paint0_linear" x1="117.849" y1="32.564" x2="43.2382" y2="111.398" gradientUnits="userSpaceOnUse">
<stop stop-color="#1FC4FB"/>
<stop offset="1" stop-color="#1FD3FB"/>
</linearGradient>
<clipPath id="clip0">
<rect width="73.2034" height="73.2034" fill="white" transform="translate(29.1592 48.0493)"/>
</clipPath>
</defs>
</svg>
